<?xml version="1.0" encoding="UTF-8" standalone="no"?>
<svg
   xmlns:dc="http://purl.org/dc/elements/1.1/"
   xmlns:cc="http://creativecommons.org/ns#"
   xmlns:rdf="http://www.w3.org/1999/02/22-rdf-syntax-ns#"
   xmlns:svg="http://www.w3.org/2000/svg"
   xmlns="http://www.w3.org/2000/svg"
   viewBox="0 0 256.63913 64.949036"
   height="64.949036"
   width="256.63913"
   xml:space="preserve"
   id="svg3751"
   version="1.1"><metadata
     id="metadata3757"><rdf:RDF><cc:Work
         rdf:about=""><dc:format>image/svg+xml</dc:format><dc:type
           rdf:resource="http://purl.org/dc/dcmitype/StillImage" /><dc:title></dc:title></cc:Work></rdf:RDF></metadata><defs
     id="defs3755" /><g
     transform="matrix(1.3333333,0,0,1.3333333,0,1.6237259e-6)"
     id="g3759"><g
       id="g3761"><path
         id="path3763"
         style="fill:#0175d8;fill-opacity:0.847059;fill-rule:nonzero;stroke:none"
         d="m 9.988,11.109 -3.55,6.903 c 0.128,0.05 0.242,0.113 0.371,0.164 0.582,0.219 1.179,0.422 1.793,0.609 l 1.832,0.57 c 0.625,0.172 1.25,0.364 1.875,0.567 0.64,0.203 1.281,0.43 1.921,0.676 0.653,0.261 1.243,0.515 1.766,0.765 0.172,0.075 0.32,0.16 0.473,0.242 l 3.551,-6.91 C 19.93,14.656 19.844,14.613 19.75,14.574 19.066,14.301 18.41,14.059 17.785,13.855 17.172,13.637 16.57,13.441 15.973,13.266 15.379,13.078 14.789,12.895 14.207,12.723 13.641,12.547 13.059,12.359 12.461,12.152 11.574,11.863 10.832,11.562 10.234,11.258 10.145,11.211 10.074,11.16 9.988,11.109 Z" /><path
         id="path3765"
         style="fill:#000080;fill-opacity:1;fill-rule:nonzero;stroke:none"
         d="M 13.289,0 C 12.195,0 11.125,0.102 10.078,0.305 9.031,0.512 8.035,0.809 7.09,1.199 6.16,1.594 5.301,2.074 4.516,2.641 3.73,3.207 3.047,3.855 2.465,4.582 1.898,5.309 1.457,6.109 1.137,6.98 0.816,7.855 0.656,8.793 0.656,9.797 c 0,1.09 0.145,2.078 0.434,2.965 0.308,0.875 0.73,1.652 1.265,2.336 0.555,0.683 1.2,1.281 1.942,1.789 0.758,0.496 1.586,0.918 2.488,1.265 0.059,0.024 0.16,0.071 0.219,0.09 l 3.641,-6.781 C 10.496,11.391 10.348,11.305 10.211,11.238 9.629,10.93 9.156,10.602 8.793,10.254 8.445,9.891 8.195,9.504 8.051,9.098 7.906,8.676 7.832,8.219 7.832,7.723 7.832,7.273 7.949,6.82 8.184,6.371 8.414,5.918 8.766,5.52 9.23,5.172 9.695,4.82 10.277,4.539 10.973,4.32 c 0.699,-0.218 1.515,-0.328 2.445,-0.328 0.523,0 1.062,0.067 1.613,0.199 0.555,0.114 1.078,0.262 1.574,0.434 0.508,0.176 0.95,0.348 1.329,0.523 0.378,0.176 0.656,0.313 0.828,0.414 0.176,0.118 0.367,0.278 0.57,0.481 0.219,0.191 0.363,0.395 0.438,0.613 l 1.089,3.903 h 3.317 V 1.395 C 23.492,1.25 22.715,1.098 21.84,0.938 20.984,0.762 20.074,0.613 19.113,0.48 18.152,0.336 17.172,0.219 16.168,0.129 15.18,0.043 14.219,0 13.289,0 Z m 77.715,0.262 -2.641,5.281 -8.945,22.516 c -0.215,0.55 -0.574,0.945 -1.066,1.179 l -2.336,1.133 v 2.027 h 11.41 v -2.027 l -3.707,-1.57 2.398,-6.219 h 11.391 l 2.594,6.348 -3.641,1.441 v 2.027 h 14.508 v -2.027 l -2.442,-1.047 c -0.218,-0.09 -0.41,-0.242 -0.57,-0.461 -0.16,-0.215 -0.289,-0.449 -0.391,-0.695 L 96.875,0.262 Z m -63.086,0.48 v 2.031 l 2.289,1.047 c 0.25,0.114 0.438,0.274 0.566,0.477 0.149,0.203 0.274,0.41 0.375,0.613 l 8.528,27.797 h 5.5 l 2.312,-5.695 5.367,-16.407 h 0.438 l 0.719,2.946 6.109,19.156 h 5.563 l 2.25,-5.695 7.285,-22.016 C 75.293,4.777 75.43,4.566 75.633,4.363 75.84,4.16 76.043,4.008 76.246,3.906 L 78.492,2.773 V 0.742 h -11.39 v 2.031 l 3.82,1.571 -6.043,19.218 H 64.418 L 63.766,20.574 57.59,1.395 H 52.18 L 49.844,7.18 44.52,23.52 h -0.5 L 43.453,20.488 38.477,4.191 42.207,2.773 V 0.742 Z m 63.809,7.266 h 0.476 l 0.789,2.945 3.008,7.77 h -8.332 z" /><path
         id="path3767"
         style="fill:#000080;fill-opacity:1;fill-rule:nonzero;stroke:none"
         d="m 112.75,0.742 v 2.031 l 3.535,1.438 c 0.203,0.074 0.379,0.184 0.524,0.328 0.16,0.129 0.242,0.34 0.242,0.633 v 22.711 c 0,0.32 -0.082,0.555 -0.242,0.699 -0.145,0.145 -0.317,0.262 -0.524,0.348 l -3.535,1.441 v 2.027 h 16.148 v -2.027 l -3.511,-1.441 c -0.235,-0.102 -0.434,-0.215 -0.594,-0.348 -0.145,-0.144 -0.219,-0.379 -0.219,-0.699 v -9.488 l 2.992,0.742 6.743,10.207 c 0.347,0.523 0.64,0.984 0.871,1.379 0.234,0.375 0.496,0.687 0.785,0.937 0.305,0.246 0.676,0.434 1.113,0.567 0.438,0.117 1.039,0.171 1.813,0.171 h 8.312 v -2.027 l -3.492,-1.133 c -0.16,-0.043 -0.313,-0.117 -0.457,-0.218 -0.145,-0.102 -0.293,-0.211 -0.438,-0.329 -0.132,-0.132 -0.254,-0.261 -0.371,-0.394 -0.101,-0.145 -0.195,-0.281 -0.285,-0.414 l -7.351,-10.711 c 0.742,-0.277 1.476,-0.641 2.203,-1.094 0.742,-0.465 1.406,-1.031 1.988,-1.699 0.582,-0.684 1.055,-1.484 1.418,-2.402 0.363,-0.915 0.543,-1.977 0.543,-3.184 0,-0.641 -0.066,-1.281 -0.195,-1.918 -0.129,-0.656 -0.364,-1.281 -0.696,-1.879 -0.32,-0.594 -0.765,-1.148 -1.332,-1.656 -0.554,-0.524 -1.265,-0.977 -2.14,-1.356 -0.86,-0.39 -1.899,-0.695 -3.121,-0.914 -1.207,-0.218 -2.618,-0.328 -4.231,-0.328 z m 35.633,0 v 2.031 l 3.535,1.438 c 0.219,0.09 0.402,0.195 0.547,0.328 0.144,0.129 0.219,0.34 0.219,0.633 v 22.582 c 0,0.32 -0.082,0.547 -0.243,0.676 -0.144,0.117 -0.32,0.226 -0.523,0.328 l -3.535,1.613 v 2.027 h 12.961 v -2.027 l -3.469,-1.613 c -0.203,-0.09 -0.387,-0.196 -0.543,-0.328 -0.148,-0.129 -0.219,-0.356 -0.219,-0.676 V 6.242 h 0.5 l 0.938,3.203 7.879,22.953 h 4.492 l 2.008,-4.796 6.285,-18.157 1.004,-3.203 h 0.519 v 21.641 c 0,0.32 -0.078,0.555 -0.238,0.699 -0.16,0.133 -0.355,0.246 -0.59,0.348 l -3.469,1.441 v 2.027 h 16.039 v -2.027 l -3.492,-1.441 c -0.218,-0.086 -0.414,-0.203 -0.59,-0.348 -0.16,-0.144 -0.238,-0.379 -0.238,-0.699 V 5.172 c 0,-0.293 0.086,-0.504 0.262,-0.633 0.172,-0.133 0.363,-0.242 0.566,-0.328 L 192.48,2.773 V 0.742 h -14.531 l -7.199,21.664 h -0.461 l -0.937,-3.597 -6.196,-18.067 z m -23.809,4.016 h 2.75 c 1.848,0 3.254,0.422 4.215,1.265 0.957,0.844 1.438,2.18 1.438,4.016 0,0.684 -0.102,1.359 -0.305,2.027 -0.203,0.653 -0.516,1.235 -0.938,1.746 -0.422,0.508 -0.961,0.922 -1.617,1.243 -0.652,0.304 -1.429,0.457 -2.332,0.457 -0.176,0 -0.422,-0.008 -0.742,-0.024 -0.305,-0.011 -0.625,-0.035 -0.961,-0.062 -0.32,-0.031 -0.625,-0.059 -0.914,-0.09 -0.277,-0.027 -0.477,-0.059 -0.594,-0.086 z" /><path
         id="path3769"
         style="fill:#000080;fill-opacity:1;fill-rule:nonzero;stroke:none"
         d="m 16.516,13.43 -1.668,3.008 0.64,0.316 c 0.215,-0.137 0.489,-0.168 0.766,-0.133 0.273,0.035 0.551,0.137 0.773,0.266 0.348,0.203 0.582,0.523 0.684,0.886 0.105,0.364 0.078,0.766 -0.109,1.122 -0.188,0.351 -0.497,0.593 -0.844,0.695 C 16.41,19.688 16.023,19.652 15.68,19.453 15.43,19.309 15.195,19.09 15.031,18.84 14.867,18.59 14.77,18.305 14.797,18.012 l -0.609,-0.383 -1.364,2.461 c 0.461,0.156 0.918,0.308 1.379,0.484 0.656,0.262 1.246,0.516 1.77,0.766 0.535,0.23 0.988,0.508 1.351,0.828 0.379,0.305 0.668,0.676 0.871,1.113 0.203,0.422 0.309,0.946 0.309,1.571 0,0.683 -0.168,1.293 -0.504,1.832 -0.32,0.523 -0.777,0.976 -1.375,1.355 -0.582,0.375 -1.277,0.668 -2.094,0.871 -0.801,0.188 -1.679,0.281 -2.64,0.281 -0.524,0 -1.098,-0.07 -1.723,-0.214 C 9.555,28.816 8.953,28.625 8.355,28.406 7.773,28.176 7.223,27.926 6.699,27.664 6.176,27.402 5.746,27.172 5.41,26.969 5.324,26.91 5.23,26.844 5.125,26.773 5.039,26.684 4.945,26.598 4.844,26.508 4.758,26.406 4.676,26.305 4.605,26.203 4.531,26.102 4.473,25.992 4.43,25.875 L 3.34,21.754 H 0 v 9.402 c 0.887,0.231 1.848,0.473 2.879,0.719 1.035,0.234 2.074,0.445 3.121,0.633 1.047,0.191 2.066,0.344 3.055,0.461 0.988,0.129 1.879,0.195 2.664,0.195 2.414,0 4.515,-0.285 6.304,-0.852 1.789,-0.566 3.274,-1.332 4.45,-2.289 1.179,-0.976 2.058,-2.097 2.64,-3.363 0.582,-1.277 0.871,-2.621 0.871,-4.035 0,-1.148 -0.164,-2.152 -0.5,-3.012 -0.336,-0.871 -0.793,-1.621 -1.375,-2.246 -0.566,-0.64 -1.23,-1.183 -1.984,-1.637 -0.758,-0.449 -1.559,-0.843 -2.402,-1.175 -0.684,-0.278 -1.336,-0.52 -1.961,-0.723 C 17.34,13.684 16.93,13.559 16.516,13.43 Z" /><text
         id="text3773"
         style="font-variant:normal;font-weight:bold;font-size:20.59404373px;font-family:'Noto Sans';-inkscape-font-specification:NotoSans-Bold;writing-mode:lr-tb;fill:#0275d8;fill-opacity:0.84761897;fill-rule:nonzero;stroke:none"
         transform="matrix(1,0,0,0.83715758,-0.842311,44.574066)"><tspan
           id="tspan3771"
           y="0"
           x="0">c</tspan></text>
<text
         id="text3777"
         style="font-variant:normal;font-weight:bold;font-size:20.59404373px;font-family:'Noto Sans';-inkscape-font-specification:NotoSans-Bold;writing-mode:lr-tb;fill:#0275d8;fill-opacity:0.84761897;fill-rule:nonzero;stroke:none"
         transform="matrix(1,0,0,0.83715758,22.96556,44.574066)"><tspan
           id="tspan3775"
           y="0"
           x="0">o</tspan></text>
<text
         id="text3781"
         style="font-variant:normal;font-weight:bold;font-size:20.59404373px;font-family:'Noto Sans';-inkscape-font-specification:NotoSans-Bold;writing-mode:lr-tb;fill:#0275d8;fill-opacity:0.84761897;fill-rule:nonzero;stroke:none"
         transform="matrix(1,0,0,0.83715758,48.945462,44.574066)"><tspan
           id="tspan3779"
           y="0"
           x="0">m</tspan></text>
<text
         id="text3785"
         style="font-variant:normal;font-weight:bold;font-size:20.59404373px;font-family:'Noto Sans';-inkscape-font-specification:NotoSans-Bold;writing-mode:lr-tb;fill:#0275d8;fill-opacity:0.84761897;fill-rule:nonzero;stroke:none"
         transform="matrix(1,0,0,0.83715758,82.406787,44.574066)"><tspan
           id="tspan3783"
           y="0"
           x="0">p</tspan></text>
<text
         id="text3789"
         style="font-variant:normal;font-weight:bold;font-size:20.59404373px;font-family:'Noto Sans';-inkscape-font-specification:NotoSans-Bold;writing-mode:lr-tb;fill:#0275d8;fill-opacity:0.84761897;fill-rule:nonzero;stroke:none"
         transform="matrix(1,0,0,0.83715758,108.66825,44.574066)"><tspan
           id="tspan3787"
           y="0"
           x="0">o</tspan></text>
<text
         id="text3793"
         style="font-variant:normal;font-weight:bold;font-size:20.59404373px;font-family:'Noto Sans';-inkscape-font-specification:NotoSans-Bold;writing-mode:lr-tb;fill:#0275d8;fill-opacity:0.84761897;fill-rule:nonzero;stroke:none"
         transform="matrix(1,0,0,0.83715758,134.64815,44.574066)"><tspan
           id="tspan3791"
           y="0"
           x="0">s</tspan></text>
<text
         id="text3797"
         style="font-variant:normal;font-weight:bold;font-size:20.59404373px;font-family:'Noto Sans';-inkscape-font-specification:NotoSans-Bold;writing-mode:lr-tb;fill:#0275d8;fill-opacity:0.84761897;fill-rule:nonzero;stroke:none"
         transform="matrix(1,0,0,0.83715758,158.09401,44.574066)"><tspan
           id="tspan3795"
           y="0"
           x="0">e</tspan></text>
<text
         id="text3801"
         style="font-variant:normal;font-weight:bold;font-size:20.59404373px;font-family:'Noto Sans';-inkscape-font-specification:NotoSans-Bold;writing-mode:lr-tb;fill:#0275d8;fill-opacity:0.84761897;fill-rule:nonzero;stroke:none"
         transform="matrix(1,0,0,0.83715758,183.51079,44.574066)"><tspan
           id="tspan3799"
           y="0"
           x="0">r</tspan></text>
<path
         id="path3803"
         style="fill:#000080;fill-opacity:1;fill-rule:nonzero;stroke:none"
         d="m 8.281,14.785 1.024,0.637 c -0.051,0.586 0.383,1.152 0.883,1.441 0.687,0.399 1.546,0.149 1.921,-0.558 0.371,-0.707 0.114,-1.606 -0.574,-2.004 -0.449,-0.258 -1.109,-0.406 -1.539,-0.137 l -1.07,-0.527 z" /></g></g></svg>