<?xml version="1.0" encoding="UTF-8" standalone="no"?>
<!-- Created with Inkscape (http://www.inkscape.org/) -->

<svg
   xmlns:dc="http://purl.org/dc/elements/1.1/"
   xmlns:cc="http://creativecommons.org/ns#"
   xmlns:rdf="http://www.w3.org/1999/02/22-rdf-syntax-ns#"
   xmlns:svg="http://www.w3.org/2000/svg"
   xmlns="http://www.w3.org/2000/svg"
   xmlns:sodipodi="http://sodipodi.sourceforge.net/DTD/sodipodi-0.dtd"
   xmlns:inkscape="http://www.inkscape.org/namespaces/inkscape"
   width="67.902443mm"
   height="17.184427mm"
   viewBox="0 0 67.902443 17.184427"
   version="1.1"
   id="svg82"
   sodipodi:docname="logo.svg"
   inkscape:version="0.92.3 (2405546, 2018-03-11)">
  <defs
     id="defs76" />
  <sodipodi:namedview
     id="base"
     pagecolor="#ffffff"
     bordercolor="#666666"
     borderopacity="1.0"
     inkscape:pageopacity="0.0"
     inkscape:pageshadow="2"
     inkscape:zoom="1.979899"
     inkscape:cx="96.41763"
     inkscape:cy="83.860481"
     inkscape:document-units="mm"
     inkscape:current-layer="layer1"
     showgrid="false"
     inkscape:window-width="1920"
     inkscape:window-height="1029"
     inkscape:window-x="0"
     inkscape:window-y="28"
     inkscape:window-maximized="1" />
  <metadata
     id="metadata79">
    <rdf:RDF>
      <cc:Work
         rdf:about="">
        <dc:format>image/svg+xml</dc:format>
        <dc:type
           rdf:resource="http://purl.org/dc/dcmitype/StillImage" />
        <dc:title></dc:title>
      </cc:Work>
    </rdf:RDF>
  </metadata>
  <g
     inkscape:label="Layer 1"
     inkscape:groupmode="layer"
     id="layer1"
     transform="translate(-69.61432,-153.84822)">
    <path
       id="text21"
       d="m 73.137618,157.76744 -1.251604,2.43447 c 0.04439,0.0186 0.0853,0.0408 0.130741,0.0584 0.205254,0.077 0.41597,0.14879 0.631487,0.21549 l 0.646472,0.19999 c 0.220644,0.0616 0.441328,0.12867 0.661974,0.20051 0.225777,0.0718 0.4517,0.15099 0.677479,0.23822 0.230907,0.0924 0.438489,0.18252 0.623216,0.26976 0.0606,0.0262 0.112591,0.0564 0.166915,0.0858 l 1.253154,-2.43758 c -0.0325,-0.0135 -0.06324,-0.0293 -0.09612,-0.0424 -0.24117,-0.0975 -0.472334,-0.18189 -0.692981,-0.25373 -0.215516,-0.077 -0.428336,-0.14617 -0.63872,-0.20774 -0.210383,-0.0667 -0.417965,-0.13118 -0.623218,-0.19275 -0.20012,-0.0616 -0.405598,-0.12815 -0.615984,-0.19999 -0.31301,-0.10263 -0.57458,-0.20799 -0.784964,-0.31574 -0.03233,-0.017 -0.05743,-0.0354 -0.08785,-0.0527 z"
       style="font-style:normal;font-variant:normal;font-weight:bold;font-stretch:normal;font-size:16.93333244px;line-height:2.25;font-family:'Sitka Small';-inkscape-font-specification:'Sitka Small Bold';font-variant-ligatures:normal;font-variant-caps:normal;font-variant-numeric:normal;font-feature-settings:normal;text-align:start;letter-spacing:0px;word-spacing:0px;writing-mode:lr-tb;text-anchor:start;fill:#0175d8;fill-opacity:0.84705882;stroke:none;stroke-width:0.26458332"
       inkscape:connector-curvature="0" />
    <path
       sodipodi:nodetypes="scccccscccccccccsccssccccccccccccscccccccccccccccccscccccccccccccccccccccccccccccccccccccccccccc"
       inkscape:connector-curvature="0"
       id="path4697"
       d="m 74.301888,153.8483 c -0.38485,0 -0.76226,0.0362 -1.131716,0.108 -0.369453,0.0718 -0.720664,0.17668 -1.054198,0.31523 -0.328403,0.13854 -0.63138,0.30786 -0.908473,0.50798 -0.27709,0.20012 -0.518216,0.42866 -0.723469,0.68523 -0.20012,0.25656 -0.356333,0.53858 -0.469223,0.84646 -0.112889,0.30788 -0.169497,0.63916 -0.169497,0.99322 0,0.38485 0.05137,0.73344 0.153996,1.04645 0.107756,0.30788 0.256624,0.58254 0.446484,0.82372 0.19499,0.24117 0.423016,0.45137 0.684713,0.63097 0.266827,0.17446 0.559323,0.32333 0.877464,0.44648 0.02032,0.008 0.05641,0.0244 0.07681,0.0319 l 1.285184,-2.39257 c -0.0531,-0.0242 -0.105481,-0.0545 -0.153286,-0.079 -0.205251,-0.10775 -0.371944,-0.22359 -0.500227,-0.34674 -0.123153,-0.12829 -0.210688,-0.26406 -0.262001,-0.40773 -0.05131,-0.14881 -0.077,-0.31026 -0.077,-0.48473 0,-0.15907 0.04141,-0.31842 0.123507,-0.47749 0.0821,-0.15907 0.205282,-0.30007 0.369485,-0.42323 0.164204,-0.12315 0.369163,-0.22327 0.615466,-0.30024 0.246304,-0.077 0.533559,-0.11524 0.861963,-0.11524 0.184729,0 0.374485,0.0231 0.569475,0.0692 0.19499,0.0411 0.380024,0.0924 0.554488,0.154 0.179596,0.0616 0.335809,0.12291 0.469222,0.18448 0.133414,0.0616 0.230913,0.11033 0.292489,0.14625 0.06157,0.0411 0.128665,0.0977 0.200504,0.1695 0.07697,0.0667 0.128339,0.13852 0.153996,0.21549 l 0.384474,1.37769 h 1.169953 v -3.23288 c -0.241171,-0.0513 -0.515327,-0.1053 -0.823206,-0.16174 -0.302747,-0.0616 -0.623549,-0.11505 -0.962216,-0.16123 -0.338666,-0.0513 -0.685152,-0.0927 -1.039212,-0.12351 -0.34893,-0.0308 -0.687554,-0.046 -1.015957,-0.046 z m 27.416932,0.0925 -0.93121,1.86242 -3.15588,7.94318 c -0.07697,0.19499 -0.202774,0.33389 -0.377238,0.416 l -0.823206,0.39997 v 0.71572 h 4.025594 v -0.71572 l -1.308963,-0.55397 0.846976,-2.19366 h 4.017837 l 0.91571,2.23965 -1.28519,0.50798 v 0.71572 h 5.11855 v -0.71572 l -0.86196,-0.36948 c -0.077,-0.0308 -0.14406,-0.0848 -0.20051,-0.16175 -0.0564,-0.077 -0.10257,-0.15875 -0.13849,-0.24598 l -3.77135,-9.84436 z m -22.256007,0.16898 v 0.71623 l 0.808218,0.36949 c 0.08723,0.041 0.153807,0.0971 0.199988,0.16898 0.05131,0.0718 0.09534,0.14366 0.13126,0.21549 l 3.009116,9.80612 h 1.939933 l 0.815973,-2.00918 1.893424,-5.78776 h 0.153996 l 0.25373,1.03922 2.155425,6.75772 h 1.962671 l 0.792716,-2.00918 2.570903,-7.76593 c 0.02567,-0.077 0.07441,-0.1514 0.146243,-0.22324 0.07184,-0.0718 0.143653,-0.12583 0.215493,-0.16175 l 0.792715,-0.39998 v -0.71623 h -4.017843 v 0.71623 l 1.34669,0.55398 -2.131653,6.78098 h -0.161748 l -0.230994,-1.0542 -2.178161,-6.766 h -1.90893 l -0.823722,2.03967 -1.877919,5.76503 h -0.17725 l -0.199988,-1.06971 -1.754934,-5.74952 1.316199,-0.50023 v -0.71623 z m 22.510257,2.56315 h 0.16898 l 0.2775,1.03921 1.06195,2.74041 h -2.94039 z"
       style="font-style:normal;font-variant:normal;font-weight:bold;font-stretch:normal;font-size:26.66666603px;line-height:1.25;font-family:'Sitka Small';-inkscape-font-specification:'Sitka Small Bold';letter-spacing:-0.74000001px;word-spacing:0px;fill:#000080;fill-opacity:1;stroke:none;stroke-width:0.26458332" />
    <path
       id="path4695"
       d="m 109.3907,154.10978 v 0.71624 l 1.24695,0.50797 c 0.0718,0.0257 0.13317,0.0639 0.18449,0.11524 0.0564,0.0462 0.0847,0.12062 0.0847,0.22325 v 8.01243 c 0,0.11289 -0.0283,0.19518 -0.0847,0.24649 -0.0513,0.0513 -0.11265,0.0922 -0.18449,0.12299 l -1.24695,0.50798 v 0.71572 h 5.69578 v -0.71572 l -1.2392,-0.50798 c -0.0821,-0.0359 -0.15182,-0.0768 -0.20826,-0.12299 -0.0513,-0.0513 -0.077,-0.1336 -0.077,-0.24649 v -3.34812 l 1.05472,0.262 2.37815,3.60185 c 0.12315,0.18473 0.22589,0.34669 0.30799,0.48524 0.0821,0.13341 0.17436,0.2435 0.27698,0.33073 0.10776,0.0872 0.23881,0.1538 0.39274,0.19999 0.15394,0.0411 0.36677,0.0615 0.63873,0.0615 h 2.93263 v -0.71572 l -1.23145,-0.39998 c -0.0564,-0.0154 -0.11043,-0.0411 -0.16174,-0.077 -0.0513,-0.0359 -0.10269,-0.0747 -0.154,-0.11575 -0.0462,-0.0462 -0.0897,-0.0923 -0.13074,-0.1385 -0.0359,-0.0513 -0.0695,-0.10006 -0.10025,-0.14624 l -2.59364,-3.77909 c 0.26169,-0.0975 0.52065,-0.22592 0.77721,-0.38499 0.2617,-0.1642 0.49548,-0.36392 0.70073,-0.59996 0.20526,-0.24118 0.37195,-0.52371 0.50023,-0.84698 0.12828,-0.32327 0.19224,-0.69755 0.19224,-1.12345 0,-0.22577 -0.0231,-0.4517 -0.0692,-0.67747 -0.0462,-0.23091 -0.12796,-0.4516 -0.24598,-0.66198 -0.11289,-0.21038 -0.26962,-0.40538 -0.46974,-0.58498 -0.19499,-0.18472 -0.44659,-0.34407 -0.75447,-0.47749 -0.30275,-0.13854 -0.66968,-0.246 -1.10071,-0.32297 -0.4259,-0.077 -0.92336,-0.11576 -1.49293,-0.11576 z m 12.57029,0 v 0.71624 l 1.24695,0.50797 c 0.077,0.0308 0.14093,0.0691 0.19224,0.11524 0.0513,0.0462 0.077,0.12062 0.077,0.22325 v 7.96644 c 0,0.11288 -0.0283,0.19256 -0.0847,0.23874 -0.0513,0.0411 -0.11264,0.0793 -0.18448,0.11524 l -1.24696,0.56947 v 0.71572 h 4.57182 v -0.71572 l -1.2237,-0.56947 c -0.0718,-0.0308 -0.13579,-0.0691 -0.19223,-0.11524 -0.0513,-0.0462 -0.077,-0.12586 -0.077,-0.23874 v -7.58921 h 0.17673 l 0.33124,1.1312 2.77865,8.09718 h 1.58543 l 0.70797,-1.69292 2.21692,-6.40426 0.35398,-1.1312 h 0.18448 v 7.6352 c 0,0.11289 -0.0278,0.19518 -0.0842,0.24649 -0.0565,0.0462 -0.12615,0.0871 -0.20825,0.12299 l -1.2237,0.50798 v 0.71572 h 5.65754 v -0.71572 l -1.23145,-0.50798 c -0.077,-0.0308 -0.14668,-0.0717 -0.20826,-0.12299 -0.0564,-0.0513 -0.0842,-0.1336 -0.0842,-0.24649 v -8.01243 c 0,-0.10263 0.0304,-0.17706 0.092,-0.22325 0.0616,-0.0462 0.12867,-0.0845 0.2005,-0.11524 l 1.23145,-0.50797 v -0.71624 h -5.1263 l -2.5399,7.64346 h -0.16174 l -0.33125,-1.27021 -2.18591,-6.37325 z m -8.39897,1.41645 h 0.96997 c 0.65168,0 1.14703,0.14887 1.4857,0.44649 0.33866,0.29761 0.50797,0.7699 0.50797,1.41645 0,0.24117 -0.0362,0.47968 -0.108,0.71572 -0.0718,0.23091 -0.18192,0.43587 -0.33073,0.61546 -0.1488,0.1796 -0.33856,0.32585 -0.56947,0.43874 -0.23091,0.10775 -0.50558,0.16174 -0.82372,0.16174 -0.0616,0 -0.1486,-0.003 -0.26149,-0.008 -0.10775,-0.005 -0.22097,-0.013 -0.339,-0.0233 -0.11288,-0.0103 -0.22035,-0.0202 -0.32297,-0.0305 -0.0975,-0.0103 -0.16721,-0.0207 -0.20826,-0.031 z"
       style="font-style:normal;font-variant:normal;font-weight:bold;font-stretch:normal;font-size:26.66666603px;line-height:1.25;font-family:'Sitka Small';-inkscape-font-specification:'Sitka Small Bold';letter-spacing:-0.74000001px;word-spacing:0px;fill:#000080;fill-opacity:1;stroke:none;stroke-width:0.26458332"
       inkscape:connector-curvature="0" />
    <path
       id="path4693"
       d="m 75.440834,158.58548 -0.588076,1.06091 0.225309,0.11163 c 0.07621,-0.0477 0.172751,-0.0585 0.26975,-0.046 0.097,0.0125 0.194877,0.0483 0.273886,0.0941 0.121627,0.0705 0.204701,0.18463 0.24133,0.31264 0.03663,0.12801 0.02646,0.26997 -0.03927,0.39481 -0.06571,0.12485 -0.174371,0.20932 -0.297141,0.24494 -0.122769,0.0356 -0.259244,0.0224 -0.380854,-0.0481 -0.08817,-0.0512 -0.170966,-0.12705 -0.228925,-0.21549 -0.05796,-0.0884 -0.09151,-0.18966 -0.08217,-0.293 l -0.21549,-0.13436 -0.481107,0.86765 c 0.16234,0.0548 0.32445,0.10884 0.486791,0.17156 0.230909,0.0924 0.439007,0.182 0.623734,0.26923 0.189859,0.0821 0.348691,0.1796 0.476975,0.29249 0.133413,0.10776 0.236151,0.23829 0.30799,0.39223 0.07184,0.14881 0.108003,0.33384 0.108003,0.55449 0,0.24117 -0.05923,0.45661 -0.177249,0.64647 -0.11289,0.18473 -0.274342,0.34407 -0.484725,0.47749 -0.205253,0.13341 -0.45162,0.23563 -0.738973,0.30747 -0.282223,0.0667 -0.592543,0.10026 -0.931209,0.10026 -0.184727,0 -0.387586,-0.0257 -0.608232,-0.077 -0.215517,-0.0564 -0.428337,-0.12302 -0.63872,-0.19999 -0.205254,-0.0821 -0.400251,-0.16964 -0.584978,-0.262 -0.184727,-0.0924 -0.336217,-0.17414 -0.454237,-0.24598 -0.03079,-0.0205 -0.06433,-0.0436 -0.100251,-0.0693 -0.03079,-0.0308 -0.06382,-0.0617 -0.09974,-0.0925 -0.03079,-0.0359 -0.05909,-0.0721 -0.08475,-0.108 -0.02566,-0.0359 -0.0461,-0.0742 -0.06149,-0.11524 l -0.38499,-1.45469 H 69.61432 v 3.31711 c 0.31301,0.0821 0.651634,0.16701 1.015957,0.25424 0.364324,0.0821 0.731256,0.15654 1.100709,0.22325 0.369454,0.0667 0.728528,0.12069 1.077452,0.16174 0.34893,0.0462 0.662387,0.0693 0.93948,0.0693 0.851797,0 1.593001,-0.10012 2.224154,-0.30023 0.63115,-0.20013 1.154808,-0.46956 1.570445,-0.80822 0.415637,-0.3438 0.725958,-0.73904 0.931209,-1.18546 0.205253,-0.45156 0.307993,-0.92595 0.307993,-1.42369 0,-0.40537 -0.05923,-0.75972 -0.177249,-1.06247 -0.118023,-0.30788 -0.279474,-0.57207 -0.484728,-0.79272 -0.20012,-0.22577 -0.433903,-0.41815 -0.70073,-0.57722 -0.26683,-0.15907 -0.548844,-0.29746 -0.84646,-0.41548 -0.241173,-0.0975 -0.472334,-0.18241 -0.692981,-0.25425 -0.148029,-0.0529 -0.293127,-0.097 -0.438735,-0.14262 z"
       style="font-style:normal;font-variant:normal;font-weight:bold;font-stretch:normal;font-size:26.66666603px;line-height:1.25;font-family:'Sitka Small';-inkscape-font-specification:'Sitka Small Bold';letter-spacing:-0.74000001px;word-spacing:0px;fill:#000080;fill-opacity:1;stroke:none;stroke-width:0.26458332"
       inkscape:connector-curvature="0" />
    <text
       transform="scale(1.0929402,0.91496317)"
       id="text3792"
       y="185.3331"
       x="63.422657"
       style="font-style:normal;font-variant:normal;font-weight:normal;font-stretch:normal;font-size:6.64741373px;line-height:1.25;font-family:sans-serif;-inkscape-font-specification:sans-serif;letter-spacing:4.27013254px;word-spacing:0px;fill:#0275d8;fill-opacity:0.84761903;stroke:none;stroke-width:0.24927796"
       xml:space="preserve"><tspan
         style="font-style:normal;font-variant:normal;font-weight:bold;font-stretch:normal;font-size:6.64731789px;font-family:sans-serif;-inkscape-font-specification:'sans-serif, Bold';font-variant-ligatures:normal;font-variant-caps:normal;font-variant-numeric:normal;font-feature-settings:normal;text-align:start;letter-spacing:4.27013254px;writing-mode:lr-tb;text-anchor:start;fill:#0275d8;fill-opacity:0.84761903;stroke-width:0.24927796"
         y="185.3331"
         x="63.422657"
         id="tspan3790"
         sodipodi:role="line">composer</tspan></text>
    <path
       sodipodi:nodetypes="cccccccc"
       inkscape:connector-curvature="0"
       id="path4646"
       d="m 72.536176,159.06368 0.360723,0.22533 c -0.01868,0.20669 0.134327,0.40589 0.310677,0.50832 0.243222,0.14102 0.546975,0.0529 0.678399,-0.19681 0.131476,-0.24967 0.04085,-0.56639 -0.202402,-0.70735 -0.15802,-0.0914 -0.390799,-0.1435 -0.543216,-0.048 l -0.376678,-0.18642 z"
       style="fill:#000080;fill-opacity:1;stroke:none;stroke-width:0.15182932;stroke-opacity:1" />
  </g>
</svg>
