<?xml version="1.0" encoding="UTF-8" standalone="no"?>
<!-- Created with Inkscape (http://www.inkscape.org/) -->

<svg
   xmlns:dc="http://purl.org/dc/elements/1.1/"
   xmlns:cc="http://creativecommons.org/ns#"
   xmlns:rdf="http://www.w3.org/1999/02/22-rdf-syntax-ns#"
   xmlns:svg="http://www.w3.org/2000/svg"
   xmlns="http://www.w3.org/2000/svg"
   xmlns:sodipodi="http://sodipodi.sourceforge.net/DTD/sodipodi-0.dtd"
   xmlns:inkscape="http://www.inkscape.org/namespaces/inkscape"
   width="14in"
   height="8.5in"
   viewBox="0 0 355.6 215.9"
   version="1.1"
   id="svg3772"
   inkscape:version="0.92.3 (2405546, 2018-03-11)"
   sodipodi:docname="Logo.svg"
   inkscape:export-filename="C:\Users\jo-ha\Desktop\Logo.png"
   inkscape:export-xdpi="96"
   inkscape:export-ydpi="96">
  <defs
     id="defs3766" />
  <sodipodi:namedview
     id="base"
     pagecolor="#ffffff"
     bordercolor="#666666"
     borderopacity="1.0"
     inkscape:pageopacity="0"
     inkscape:pageshadow="2"
     inkscape:zoom="0.55966592"
     inkscape:cx="151.60007"
     inkscape:cy="75.85629"
     inkscape:document-units="mm"
     inkscape:current-layer="g834"
     showgrid="false"
     inkscape:object-nodes="false"
     inkscape:snap-text-baseline="false"
     inkscape:window-width="1920"
     inkscape:window-height="986"
     inkscape:window-x="-11"
     inkscape:window-y="-11"
     inkscape:window-maximized="1"
     showborder="false"
     inkscape:pagecheckerboard="true"
     units="in" />
  <metadata
     id="metadata3769">
    <rdf:RDF>
      <cc:Work
         rdf:about="">
        <dc:format>image/svg+xml</dc:format>
        <dc:type
           rdf:resource="http://purl.org/dc/dcmitype/StillImage" />
        <dc:title></dc:title>
      </cc:Work>
    </rdf:RDF>
  </metadata>
  <g
     inkscape:groupmode="layer"
     id="layer2"
     inkscape:label="Ebene 2"
     transform="translate(-3.7213363,195.24326)">
    <text
       xml:space="preserve"
       style="font-style:normal;font-variant:normal;font-weight:bold;font-stretch:normal;font-size:16.93333244px;line-height:1.25;font-family:'Sitka Small';-inkscape-font-specification:'Sitka Small Bold';font-variant-ligatures:normal;font-variant-caps:normal;font-variant-numeric:normal;font-feature-settings:normal;text-align:start;letter-spacing:0px;word-spacing:0px;writing-mode:lr-tb;text-anchor:start;fill:#000000;fill-opacity:1;stroke:none;stroke-width:0.26458332"
       x="75.595459"
       y="68.67337"
       id="text27"><tspan
         sodipodi:role="line"
         id="tspan25"
         x="75.595459"
         y="83.605492"
         style="stroke-width:0.26458332" /></text>
  </g>
  <g
     inkscape:label="Ebene 1"
     inkscape:groupmode="layer"
     id="layer1"
     transform="translate(-3.7213363,195.24326)">
    <flowRoot
       xml:space="preserve"
       id="flowRoot3782"
       style="font-style:normal;font-variant:normal;font-weight:normal;font-stretch:normal;font-size:26.66666603px;line-height:1.25;font-family:sans-serif;-inkscape-font-specification:sans-serif;letter-spacing:0px;word-spacing:0px;fill:#000000;fill-opacity:1;stroke:none"
       transform="scale(0.26458333)"><flowRegion
         id="flowRegion3784"><rect
           id="rect3786"
           width="268.09708"
           height="27.089947"
           x="206.44408"
           y="354.65982" /></flowRegion><flowPara
         id="flowPara3788">comm</flowPara></flowRoot>    <g
       id="g834"
       transform="translate(-50.850526,-70.398047)">
      <path
         transform="scale(0.26458333)"
         id="text21"
         d="m 219.57227,294.90039 -4.73047,9.20117 c 0.16777,0.0704 0.32241,0.15423 0.49414,0.22071 0.77576,0.2909 1.57217,0.56233 2.38672,0.81445 l 2.44336,0.75586 c 0.83393,0.23273 1.66801,0.4863 2.50195,0.75781 0.85333,0.27152 1.70721,0.57069 2.56055,0.90039 0.87272,0.34909 1.65728,0.68984 2.35546,1.01953 0.22904,0.099 0.42554,0.21332 0.63086,0.32422 l 4.73633,-9.21289 c -0.12284,-0.0512 -0.23901,-0.11088 -0.36328,-0.16016 -0.91151,-0.36848 -1.7852,-0.68746 -2.61914,-0.95898 -0.81455,-0.29091 -1.61891,-0.55243 -2.41406,-0.78516 -0.79515,-0.25212 -1.57971,-0.49578 -2.35547,-0.72851 -0.75636,-0.23273 -1.53297,-0.48435 -2.32813,-0.75586 -1.18303,-0.38788 -2.17164,-0.78609 -2.96679,-1.19336 -0.12221,-0.0642 -0.21704,-0.13362 -0.33203,-0.19922 z"
         style="font-style:normal;font-variant:normal;font-weight:bold;font-stretch:normal;font-size:16.93333244px;line-height:2.25;font-family:'Sitka Small';-inkscape-font-specification:'Sitka Small Bold';font-variant-ligatures:normal;font-variant-caps:normal;font-variant-numeric:normal;font-feature-settings:normal;text-align:start;letter-spacing:0px;word-spacing:0px;writing-mode:lr-tb;text-anchor:start;fill:#0175d8;fill-opacity:0.84705882;stroke:none;stroke-width:0.99999994"
         inkscape:connector-curvature="0" />
      <path
         sodipodi:nodetypes="scccccscccccccccsccssccccccccccccscccccccccccccccccscccccccccccccccccccccccccccccccccccccccccccc"
         inkscape:connector-curvature="0"
         transform="scale(0.26458333)"
         id="path4697"
         d="m 223.97266,280.08789 c -1.45455,0 -2.88098,0.13669 -4.27735,0.4082 -1.39636,0.27152 -2.72377,0.66777 -3.98437,1.19141 -1.24121,0.52364 -2.38632,1.16356 -3.4336,1.91992 -1.04727,0.75637 -1.95861,1.62015 -2.73437,2.58985 -0.75636,0.96969 -1.34677,2.03558 -1.77344,3.19921 -0.42667,1.16364 -0.64062,2.41573 -0.64062,3.75391 0,1.45455 0.19415,2.77205 0.58203,3.95508 0.40727,1.16364 0.96992,2.20176 1.6875,3.11328 0.73697,0.91152 1.5988,1.70598 2.58789,2.38477 1.00848,0.65939 2.11398,1.22204 3.3164,1.6875 0.0768,0.0288 0.21319,0.0922 0.29032,0.12056 l 4.85739,-9.04278 c -0.2007,-0.0915 -0.39867,-0.20594 -0.57935,-0.29849 -0.77575,-0.40727 -1.40577,-0.84509 -1.89062,-1.31054 -0.46546,-0.48485 -0.7963,-0.99799 -0.99024,-1.54102 -0.19394,-0.56242 -0.29101,-1.17264 -0.29101,-1.83203 0,-0.60121 0.15649,-1.20348 0.4668,-1.80469 0.3103,-0.60121 0.77587,-1.13415 1.39648,-1.59961 0.62061,-0.46545 1.39526,-0.84385 2.32617,-1.13476 0.93091,-0.29091 2.0166,-0.43555 3.25781,-0.43555 0.69819,0 1.41538,0.0872 2.15235,0.26172 0.73697,0.15515 1.43631,0.3493 2.0957,0.58203 0.67879,0.23273 1.2692,0.46455 1.77344,0.69726 0.50424,0.23273 0.87274,0.41698 1.10547,0.55274 0.23272,0.15515 0.48629,0.36911 0.75781,0.64062 0.29091,0.25213 0.48506,0.52355 0.58203,0.81446 l 1.45313,5.20703 h 4.42187 v -12.21875 c -0.91151,-0.19394 -1.94769,-0.398 -3.11133,-0.61133 -1.14424,-0.23273 -2.35672,-0.43483 -3.63672,-0.60937 -1.28,-0.19394 -2.58955,-0.35044 -3.92773,-0.4668 -1.31879,-0.11636 -2.59863,-0.17383 -3.83984,-0.17383 z m 103.62304,0.34961 -3.51953,7.03906 -11.92773,30.02149 c -0.29091,0.73697 -0.76639,1.26196 -1.42578,1.57226 l -3.11133,1.51172 v 2.70508 h 15.21484 v -2.70508 l -4.94726,-2.09375 3.20117,-8.29101 h 15.18554 l 3.46094,8.46484 -4.85742,1.91992 v 2.70508 h 19.3457 v -2.70508 l -3.25781,-1.39648 c -0.29091,-0.11637 -0.54448,-0.32042 -0.75781,-0.61133 -0.21333,-0.29091 -0.38768,-0.59999 -0.52344,-0.92969 l -14.2539,-37.20703 z m -84.11718,0.63867 v 2.70703 l 3.05468,1.39649 c 0.3297,0.15515 0.58132,0.36715 0.75586,0.63867 0.19394,0.27151 0.36034,0.54294 0.4961,0.81445 l 11.37304,37.0625 h 7.33203 l 3.08399,-7.59375 7.15625,-21.875 h 0.58203 l 0.95898,3.92774 8.14649,25.54101 h 7.41797 l 2.99609,-7.59375 9.7168,-29.35156 c 0.097,-0.29091 0.28122,-0.57223 0.55273,-0.84375 0.27152,-0.27152 0.54294,-0.47557 0.81446,-0.61133 l 2.99609,-1.51172 v -2.70703 h -15.18555 v 2.70703 l 5.08985,2.09375 -8.05664,25.62891 h -0.61133 l -0.87305,-3.98438 -8.23242,-25.57226 h -7.21485 l -3.11328,7.70898 -7.09765,21.78907 h -0.66992 l -0.75586,-4.04297 -6.63282,-21.73047 4.97461,-1.89063 v -2.70703 z m 85.07812,9.6875 h 0.63867 l 1.04883,3.92774 4.01367,10.35742 h -11.11328 z"
         style="font-style:normal;font-variant:normal;font-weight:bold;font-stretch:normal;font-size:26.66666603px;line-height:1.25;font-family:'Sitka Small';-inkscape-font-specification:'Sitka Small Bold';letter-spacing:-0.74000001px;word-spacing:0px;fill:#000080;fill-opacity:1;stroke:none" />
      <path
         transform="scale(0.26458333)"
         id="path4695"
         d="m 356.5918,281.07617 v 2.70703 l 4.71289,1.91992 c 0.27151,0.097 0.50332,0.24161 0.69726,0.43555 0.21334,0.17455 0.32032,0.45587 0.32032,0.84375 v 30.2832 c 0,0.42667 -0.10698,0.73771 -0.32032,0.93165 -0.19394,0.19394 -0.42575,0.34848 -0.69726,0.46484 l -4.71289,1.91992 v 2.70508 h 21.52734 v -2.70508 l -4.68359,-1.91992 c -0.31031,-0.13576 -0.57378,-0.2903 -0.78711,-0.46484 -0.19394,-0.19394 -0.29102,-0.50498 -0.29102,-0.93165 v -12.65429 l 3.98633,0.99023 8.98828,13.61328 c 0.46546,0.69819 0.85376,1.31035 1.16406,1.83399 0.31031,0.50424 0.659,0.9203 1.04688,1.25 0.40727,0.3297 0.90256,0.58131 1.48437,0.75586 0.58182,0.15515 1.38619,0.23242 2.41407,0.23242 h 11.08398 v -2.70508 l -4.6543,-1.51172 c -0.21333,-0.0582 -0.41738,-0.15526 -0.61132,-0.29101 -0.19394,-0.13576 -0.3881,-0.28235 -0.58204,-0.4375 -0.17454,-0.17455 -0.33898,-0.3489 -0.49414,-0.52344 -0.13575,-0.19394 -0.26254,-0.37819 -0.3789,-0.55274 l -9.80274,-14.2832 c 0.98909,-0.36848 1.96781,-0.85386 2.9375,-1.45508 0.98909,-0.6206 1.87268,-1.37545 2.64844,-2.26757 0.77576,-0.91152 1.40578,-1.97936 1.89063,-3.20118 0.48484,-1.22181 0.72656,-2.63639 0.72656,-4.24609 0,-0.85333 -0.0872,-1.70721 -0.26172,-2.56055 -0.17455,-0.87272 -0.48363,-1.7068 -0.92969,-2.50195 -0.42666,-0.79515 -1.01903,-1.53215 -1.77539,-2.21094 -0.73697,-0.69818 -1.68792,-1.30044 -2.85156,-1.80468 -1.14424,-0.52364 -2.53107,-0.9298 -4.16016,-1.22071 -1.60969,-0.29091 -3.48985,-0.4375 -5.64258,-0.4375 z m 47.50976,0 v 2.70703 l 4.71289,1.91992 c 0.29091,0.11637 0.53263,0.26101 0.72657,0.43555 0.19394,0.17455 0.29101,0.45587 0.29101,0.84375 v 30.10938 c 0,0.42666 -0.10698,0.7278 -0.32031,0.90234 -0.19394,0.15515 -0.42575,0.29979 -0.69727,0.43555 l -4.71289,2.15234 v 2.70508 h 17.2793 v -2.70508 l -4.625,-2.15234 c -0.27152,-0.11637 -0.51323,-0.261 -0.72656,-0.43555 -0.19394,-0.17454 -0.29102,-0.47568 -0.29102,-0.90234 v -28.6836 h 0.66797 l 1.25195,4.27539 10.50196,30.60352 h 5.99218 l 2.67578,-6.39844 8.37891,-24.20508 1.33789,-4.27539 h 0.69727 v 28.85742 c 0,0.42667 -0.10503,0.73771 -0.31836,0.93165 -0.21334,0.17454 -0.47681,0.32908 -0.78711,0.46484 l -4.625,1.91992 v 2.70508 h 21.38281 v -2.70508 l -4.6543,-1.91992 c -0.2909,-0.11636 -0.55438,-0.2709 -0.78711,-0.46484 -0.21333,-0.19394 -0.31835,-0.50498 -0.31835,-0.93165 v -30.2832 c 0,-0.38788 0.11492,-0.6692 0.34765,-0.84375 0.23273,-0.17454 0.4863,-0.31918 0.75781,-0.43555 l 4.6543,-1.91992 v -2.70703 h -19.375 l -9.59961,28.88867 h -0.61133 l -1.25195,-4.80078 -8.26172,-24.08789 z m -31.74414,5.35352 h 3.66602 c 2.46303,0 4.33523,0.56265 5.61523,1.6875 1.28,1.12485 1.91992,2.90988 1.91992,5.35351 0,0.91152 -0.13668,1.81296 -0.4082,2.70508 -0.27151,0.87273 -0.68758,1.64739 -1.25,2.32617 -0.56242,0.67879 -1.27962,1.23154 -2.15234,1.65821 -0.87273,0.40727 -1.91086,0.61132 -3.11328,0.61132 -0.23273,0 -0.56162,-0.01 -0.98829,-0.0293 -0.40727,-0.0194 -0.83519,-0.0491 -1.28125,-0.0879 -0.42666,-0.0388 -0.83282,-0.0764 -1.2207,-0.11524 -0.36848,-0.0388 -0.63196,-0.0784 -0.78711,-0.11718 z"
         style="font-style:normal;font-variant:normal;font-weight:bold;font-stretch:normal;font-size:26.66666603px;line-height:1.25;font-family:'Sitka Small';-inkscape-font-specification:'Sitka Small Bold';letter-spacing:-0.74000001px;word-spacing:0px;fill:#000080;fill-opacity:1;stroke:none"
         inkscape:connector-curvature="0" />
      <path
         transform="scale(0.26458333)"
         id="path4693"
         d="m 228.27734,297.99219 -2.22265,4.00976 0.85156,0.42188 c 0.28803,-0.18039 0.65292,-0.22114 1.01953,-0.17383 0.36661,0.0473 0.73654,0.18273 1.03516,0.35547 0.45969,0.26638 0.77367,0.69783 0.91211,1.18164 0.13844,0.48381 0.10002,1.02036 -0.14844,1.49219 -0.24836,0.47187 -0.65904,0.79116 -1.12305,0.92578 -0.46401,0.13461 -0.97982,0.0848 -1.43945,-0.18164 -0.33326,-0.19358 -0.64617,-0.48019 -0.86523,-0.81446 -0.21907,-0.33426 -0.34585,-0.71682 -0.31055,-1.10742 l -0.81445,-0.50781 -1.81836,3.2793 c 0.61357,0.20698 1.22627,0.41137 1.83984,0.64843 0.87273,0.3491 1.65924,0.68789 2.35742,1.01758 0.71758,0.31031 1.31789,0.6788 1.80274,1.10547 0.50424,0.40727 0.89254,0.9006 1.16406,1.48242 0.27151,0.56243 0.4082,1.26177 0.4082,2.09571 0,0.91151 -0.22386,1.72578 -0.66992,2.44336 -0.42667,0.69818 -1.03688,1.30044 -1.83203,1.80468 -0.77576,0.50425 -1.70691,0.8906 -2.79297,1.16211 -1.06667,0.25212 -2.23953,0.37891 -3.51953,0.37891 -0.69818,0 -1.46489,-0.0971 -2.29883,-0.29102 -0.81455,-0.21333 -1.61891,-0.46495 -2.41406,-0.75586 -0.77576,-0.3103 -1.51276,-0.64114 -2.21094,-0.99023 -0.69818,-0.34909 -1.27074,-0.65817 -1.7168,-0.92969 -0.11636,-0.0776 -0.24315,-0.16475 -0.3789,-0.26172 -0.11637,-0.11636 -0.2412,-0.23324 -0.37696,-0.34961 -0.11636,-0.13575 -0.22334,-0.27244 -0.32031,-0.4082 -0.097,-0.13576 -0.17424,-0.28039 -0.23242,-0.43555 l -1.45508,-5.49804 h -4.45117 v 12.53711 c 1.18303,0.3103 2.46287,0.63124 3.83984,0.96093 1.37697,0.31031 2.7638,0.59163 4.16016,0.84375 1.39636,0.25212 2.75349,0.45618 4.07226,0.61133 1.31879,0.17455 2.50351,0.26172 3.55079,0.26172 3.21939,0 6.02079,-0.37841 8.40625,-1.13476 2.38545,-0.75637 4.36463,-1.77469 5.93554,-3.05469 1.57091,-1.2994 2.74378,-2.7932 3.51953,-4.48047 0.77576,-1.70667 1.16407,-3.49965 1.16407,-5.38086 0,-1.53212 -0.22387,-2.87138 -0.66992,-4.01563 -0.44607,-1.16363 -1.05628,-2.16215 -1.83204,-2.99609 -0.75636,-0.85333 -1.63995,-1.58043 -2.64843,-2.18164 -1.00849,-0.60121 -2.07437,-1.12425 -3.19922,-1.57031 -0.91152,-0.36849 -1.7852,-0.68942 -2.61914,-0.96094 -0.55948,-0.19981 -1.10788,-0.3667 -1.65821,-0.53906 z"
         style="font-style:normal;font-variant:normal;font-weight:bold;font-stretch:normal;font-size:26.66666603px;line-height:1.25;font-family:'Sitka Small';-inkscape-font-specification:'Sitka Small Bold';letter-spacing:-0.74000001px;word-spacing:0px;fill:#000080;fill-opacity:1;stroke:none"
         inkscape:connector-curvature="0" />
      <text
         transform="scale(1.0605182,0.94293527)"
         id="text3792"
         y="95.267677"
         x="51.279099"
         style="font-style:normal;font-variant:normal;font-weight:normal;font-stretch:normal;font-size:6.45021915px;line-height:1.25;font-family:sans-serif;-inkscape-font-specification:sans-serif;letter-spacing:4.14345932px;word-spacing:0px;fill:#0275d8;fill-opacity:0.84761903;stroke:none;stroke-width:0.24188317"
         xml:space="preserve"><tspan
           style="font-style:normal;font-variant:normal;font-weight:bold;font-stretch:normal;font-size:6.45012617px;font-family:sans-serif;-inkscape-font-specification:'sans-serif, Bold';font-variant-ligatures:normal;font-variant-caps:normal;font-variant-numeric:normal;font-feature-settings:normal;text-align:start;letter-spacing:4.14345932px;writing-mode:lr-tb;text-anchor:start;fill:#0275d8;fill-opacity:0.84761903;stroke-width:0.24188317"
           y="95.267677"
           x="51.279099"
           id="tspan3790"
           sodipodi:role="line">composer</tspan></text>
      <path
         sodipodi:nodetypes="cccccccc"
         inkscape:connector-curvature="0"
         id="path4646"
         d="m 57.493721,79.321969 0.360723,0.225327 c -0.01868,0.206689 0.134327,0.405889 0.310677,0.508326 0.243222,0.141014 0.546975,0.05289 0.678399,-0.196812 0.131476,-0.249675 0.04085,-0.566388 -0.202402,-0.707348 -0.15802,-0.09141 -0.390799,-0.143506 -0.543216,-0.04805 L 57.721224,78.91699 Z"
         style="fill:#000080;fill-opacity:1;stroke:none;stroke-width:0.1518293;stroke-opacity:1" />
    </g>
  </g>
</svg>
